<svg width="530" height="85" viewBox="0 0 530 85" fill="none" xmlns="http://www.w3.org/2000/svg">
<path d="M112.344 67C111.864 67 111.456 66.832 111.12 66.496C110.784 66.16 110.616 65.752 110.616 65.272V18.4C110.616 17.872 110.784 17.44 111.12 17.104C111.456 16.768 111.864 16.6 112.344 16.6H131.64C135.384 16.6 138.648 17.2 141.432 18.4C144.216 19.552 146.376 21.328 147.912 23.728C149.448 26.08 150.216 29.032 150.216 32.584C150.216 36.184 149.448 39.16 147.912 41.512C146.376 43.816 144.216 45.544 141.432 46.696C138.648 47.848 135.384 48.424 131.64 48.424H120.912V65.272C120.912 65.752 120.744 66.16 120.408 66.496C120.12 66.832 119.712 67 119.184 67H112.344ZM120.768 40.432H131.28C134.064 40.432 136.2 39.784 137.688 38.488C139.176 37.144 139.92 35.176 139.92 32.584C139.92 30.184 139.224 28.264 137.832 26.824C136.44 25.336 134.256 24.592 131.28 24.592H120.768V40.432ZM159.013 67C158.533 67 158.125 66.832 157.789 66.496C157.453 66.16 157.285 65.752 157.285 65.272V17.608C157.285 17.128 157.453 16.72 157.789 16.384C158.125 16.048 158.533 15.88 159.013 15.88H164.989C165.469 15.88 165.877 16.048 166.213 16.384C166.549 16.72 166.717 17.128 166.717 17.608V65.272C166.717 65.752 166.549 66.16 166.213 66.496C165.877 66.832 165.469 67 164.989 67H159.013ZM187.14 67.72C184.644 67.72 182.388 67.24 180.372 66.28C178.356 65.272 176.748 63.952 175.548 62.32C174.396 60.64 173.82 58.768 173.82 56.704C173.82 53.344 175.164 50.68 177.852 48.712C180.588 46.696 184.188 45.352 188.652 44.68L198.516 43.24V41.728C198.516 39.712 198.012 38.152 197.004 37.048C195.996 35.944 194.268 35.392 191.82 35.392C190.092 35.392 188.676 35.752 187.572 36.472C186.516 37.144 185.724 38.056 185.196 39.208C184.812 39.832 184.26 40.144 183.54 40.144H177.852C177.324 40.144 176.916 40 176.628 39.712C176.388 39.424 176.268 39.04 176.268 38.56C176.316 37.792 176.628 36.856 177.204 35.752C177.78 34.648 178.692 33.592 179.94 32.584C181.188 31.528 182.796 30.64 184.764 29.92C186.732 29.2 189.108 28.84 191.892 28.84C194.916 28.84 197.46 29.224 199.524 29.992C201.636 30.712 203.316 31.696 204.564 32.944C205.812 34.192 206.724 35.656 207.3 37.336C207.876 39.016 208.164 40.792 208.164 42.664V65.272C208.164 65.752 207.996 66.16 207.66 66.496C207.324 66.832 206.916 67 206.436 67H200.604C200.076 67 199.644 66.832 199.308 66.496C199.02 66.16 198.876 65.752 198.876 65.272V62.464C198.252 63.376 197.412 64.24 196.356 65.056C195.3 65.824 194.004 66.472 192.468 67C190.98 67.48 189.204 67.72 187.14 67.72ZM189.588 60.88C191.268 60.88 192.78 60.52 194.124 59.8C195.516 59.08 196.596 57.976 197.364 56.488C198.18 54.952 198.588 53.032 198.588 50.728V49.216L191.388 50.368C188.556 50.8 186.444 51.496 185.052 52.456C183.66 53.416 182.964 54.592 182.964 55.984C182.964 57.04 183.276 57.952 183.9 58.72C184.572 59.44 185.412 59.992 186.42 60.376C187.428 60.712 188.484 60.88 189.588 60.88ZM223.184 80.68C222.8 80.68 222.464 80.536 222.176 80.248C221.888 79.96 221.744 79.624 221.744 79.24C221.744 79.048 221.744 78.856 221.744 78.664C221.792 78.52 221.888 78.328 222.032 78.088L227.648 64.768L213.824 32.152C213.632 31.672 213.536 31.336 213.536 31.144C213.584 30.712 213.752 30.352 214.04 30.064C214.328 29.728 214.688 29.56 215.12 29.56H220.952C221.528 29.56 221.96 29.704 222.248 29.992C222.536 30.28 222.752 30.592 222.896 30.928L232.472 54.472L242.336 30.928C242.48 30.544 242.696 30.232 242.984 29.992C243.272 29.704 243.704 29.56 244.28 29.56H250.04C250.424 29.56 250.76 29.704 251.048 29.992C251.384 30.28 251.552 30.616 251.552 31C251.552 31.288 251.456 31.672 251.264 32.152L230.888 79.312C230.696 79.696 230.456 80.008 230.168 80.248C229.88 80.536 229.448 80.68 228.872 80.68H223.184ZM278.496 67.72C275.712 67.72 273.384 67.24 271.512 66.28C269.688 65.32 268.176 64.096 266.976 62.608V65.272C266.976 65.752 266.808 66.16 266.472 66.496C266.184 66.832 265.776 67 265.248 67H259.56C259.08 67 258.672 66.832 258.336 66.496C258 66.16 257.832 65.752 257.832 65.272V17.608C257.832 17.128 258 16.72 258.336 16.384C258.672 16.048 259.08 15.88 259.56 15.88H265.68C266.208 15.88 266.616 16.048 266.904 16.384C267.24 16.72 267.408 17.128 267.408 17.608V33.592C268.608 32.2 270.096 31.072 271.872 30.208C273.696 29.296 275.904 28.84 278.496 28.84C281.04 28.84 283.248 29.272 285.12 30.136C286.992 31 288.552 32.224 289.8 33.808C291.096 35.344 292.08 37.144 292.752 39.208C293.424 41.272 293.784 43.504 293.832 45.904C293.88 46.768 293.904 47.56 293.904 48.28C293.904 48.952 293.88 49.72 293.832 50.584C293.736 53.08 293.352 55.384 292.68 57.496C292.008 59.56 291.048 61.36 289.8 62.896C288.552 64.432 286.992 65.632 285.12 66.496C283.248 67.312 281.04 67.72 278.496 67.72ZM275.832 60.016C277.896 60.016 279.504 59.584 280.656 58.72C281.808 57.808 282.624 56.632 283.104 55.192C283.632 53.752 283.944 52.168 284.04 50.44C284.136 49 284.136 47.56 284.04 46.12C283.944 44.392 283.632 42.808 283.104 41.368C282.624 39.928 281.808 38.776 280.656 37.912C279.504 37 277.896 36.544 275.832 36.544C273.912 36.544 272.352 36.976 271.152 37.84C269.952 38.704 269.04 39.808 268.416 41.152C267.792 42.448 267.456 43.816 267.408 45.256C267.36 46.12 267.336 47.056 267.336 48.064C267.336 49.024 267.36 49.936 267.408 50.8C267.504 52.288 267.816 53.752 268.344 55.192C268.92 56.584 269.808 57.736 271.008 58.648C272.256 59.56 273.864 60.016 275.832 60.016ZM312.788 67.72C310.292 67.72 308.036 67.24 306.02 66.28C304.004 65.272 302.396 63.952 301.196 62.32C300.044 60.64 299.468 58.768 299.468 56.704C299.468 53.344 300.812 50.68 303.5 48.712C306.236 46.696 309.836 45.352 314.3 44.68L324.164 43.24V41.728C324.164 39.712 323.66 38.152 322.652 37.048C321.644 35.944 319.916 35.392 317.468 35.392C315.74 35.392 314.324 35.752 313.22 36.472C312.164 37.144 311.372 38.056 310.844 39.208C310.46 39.832 309.908 40.144 309.188 40.144H303.5C302.972 40.144 302.564 40 302.276 39.712C302.036 39.424 301.916 39.04 301.916 38.56C301.964 37.792 302.276 36.856 302.852 35.752C303.428 34.648 304.34 33.592 305.588 32.584C306.836 31.528 308.444 30.64 310.412 29.92C312.38 29.2 314.756 28.84 317.54 28.84C320.564 28.84 323.108 29.224 325.172 29.992C327.284 30.712 328.964 31.696 330.212 32.944C331.46 34.192 332.372 35.656 332.948 37.336C333.524 39.016 333.812 40.792 333.812 42.664V65.272C333.812 65.752 333.644 66.16 333.308 66.496C332.972 66.832 332.564 67 332.084 67H326.252C325.724 67 325.292 66.832 324.956 66.496C324.668 66.16 324.524 65.752 324.524 65.272V62.464C323.9 63.376 323.06 64.24 322.004 65.056C320.948 65.824 319.652 66.472 318.116 67C316.628 67.48 314.852 67.72 312.788 67.72ZM315.236 60.88C316.916 60.88 318.428 60.52 319.772 59.8C321.164 59.08 322.244 57.976 323.012 56.488C323.828 54.952 324.236 53.032 324.236 50.728V49.216L317.036 50.368C314.204 50.8 312.092 51.496 310.7 52.456C309.308 53.416 308.612 54.592 308.612 55.984C308.612 57.04 308.924 57.952 309.548 58.72C310.22 59.44 311.06 59.992 312.068 60.376C313.076 60.712 314.132 60.88 315.236 60.88ZM359.249 67.72C355.793 67.72 352.745 67.072 350.105 65.776C347.513 64.48 345.473 62.608 343.985 60.16C342.545 57.664 341.753 54.664 341.609 51.16C341.561 50.44 341.537 49.504 341.537 48.352C341.537 47.152 341.561 46.168 341.609 45.4C341.753 41.896 342.545 38.92 343.985 36.472C345.473 33.976 347.513 32.08 350.105 30.784C352.745 29.488 355.793 28.84 359.249 28.84C362.321 28.84 364.937 29.272 367.097 30.136C369.257 31 371.033 32.08 372.425 33.376C373.817 34.672 374.849 36.04 375.521 37.48C376.241 38.872 376.625 40.144 376.673 41.296C376.721 41.824 376.553 42.256 376.169 42.592C375.833 42.88 375.425 43.024 374.945 43.024H368.609C368.129 43.024 367.745 42.904 367.457 42.664C367.217 42.424 366.977 42.064 366.737 41.584C366.017 39.664 365.057 38.32 363.857 37.552C362.705 36.736 361.217 36.328 359.393 36.328C356.993 36.328 355.073 37.096 353.633 38.632C352.241 40.12 351.497 42.496 351.401 45.76C351.305 47.584 351.305 49.264 351.401 50.8C351.497 54.112 352.241 56.512 353.633 58C355.073 59.488 356.993 60.232 359.393 60.232C361.265 60.232 362.777 59.848 363.929 59.08C365.081 58.264 366.017 56.896 366.737 54.976C366.977 54.496 367.217 54.136 367.457 53.896C367.745 53.656 368.129 53.536 368.609 53.536H374.945C375.425 53.536 375.833 53.704 376.169 54.04C376.553 54.328 376.721 54.736 376.673 55.264C376.625 56.128 376.385 57.112 375.953 58.216C375.569 59.272 374.921 60.376 374.009 61.528C373.145 62.632 372.041 63.664 370.697 64.624C369.353 65.536 367.721 66.28 365.801 66.856C363.929 67.432 361.745 67.72 359.249 67.72ZM385.982 67C385.502 67 385.094 66.832 384.758 66.496C384.422 66.16 384.254 65.752 384.254 65.272V17.608C384.254 17.128 384.422 16.72 384.758 16.384C385.094 16.048 385.502 15.88 385.982 15.88H391.814C392.342 15.88 392.75 16.048 393.038 16.384C393.374 16.72 393.542 17.128 393.542 17.608V42.232L405.638 30.784C406.07 30.4 406.454 30.112 406.79 29.92C407.126 29.68 407.63 29.56 408.302 29.56H414.998C415.478 29.56 415.862 29.704 416.15 29.992C416.438 30.28 416.582 30.664 416.582 31.144C416.582 31.336 416.534 31.552 416.438 31.792C416.342 32.032 416.15 32.248 415.862 32.44L401.03 46.336L417.662 64.192C418.142 64.672 418.382 65.08 418.382 65.416C418.382 65.896 418.214 66.28 417.878 66.568C417.59 66.856 417.23 67 416.798 67H409.958C409.238 67 408.71 66.904 408.374 66.712C408.086 66.472 407.726 66.16 407.294 65.776L393.542 51.304V65.272C393.542 65.752 393.374 66.16 393.038 66.496C392.75 66.832 392.342 67 391.814 67H385.982ZM421.536 67C421.152 67 420.792 66.856 420.456 66.568C420.168 66.28 420.024 65.92 420.024 65.488C420.024 65.296 420.072 65.08 420.168 64.84L437.52 18.4C437.664 17.92 437.928 17.512 438.312 17.176C438.744 16.792 439.32 16.6 440.04 16.6H447.888C448.608 16.6 449.16 16.792 449.544 17.176C449.928 17.512 450.216 17.92 450.408 18.4L467.76 64.84C467.808 65.08 467.832 65.296 467.832 65.488C467.832 65.92 467.688 66.28 467.4 66.568C467.112 66.856 466.776 67 466.392 67H460.128C459.456 67 458.952 66.856 458.616 66.568C458.328 66.232 458.136 65.92 458.04 65.632L454.656 56.848H433.272L429.888 65.632C429.792 65.92 429.576 66.232 429.24 66.568C428.952 66.856 428.472 67 427.8 67H421.536ZM435.792 48.568H452.136L443.928 26.32L435.792 48.568ZM475.418 67C474.938 67 474.53 66.832 474.194 66.496C473.858 66.16 473.689 65.752 473.689 65.272V31.36C473.689 30.832 473.858 30.4 474.194 30.064C474.53 29.728 474.938 29.56 475.418 29.56H481.25C481.73 29.56 482.138 29.728 482.474 30.064C482.858 30.4 483.05 30.832 483.05 31.36V34.312C484.154 32.776 485.57 31.6 487.298 30.784C489.074 29.968 491.114 29.56 493.418 29.56H496.37C496.898 29.56 497.306 29.728 497.594 30.064C497.93 30.4 498.098 30.808 498.098 31.288V36.472C498.098 36.952 497.93 37.36 497.594 37.696C497.306 38.032 496.898 38.2 496.37 38.2H490.754C488.45 38.2 486.65 38.848 485.354 40.144C484.106 41.44 483.482 43.216 483.482 45.472V65.272C483.482 65.752 483.314 66.16 482.978 66.496C482.642 66.832 482.21 67 481.682 67H475.418ZM520.633 67C517.753 67 515.329 66.496 513.361 65.488C511.393 64.48 509.929 62.992 508.969 61.024C508.009 59.008 507.529 56.512 507.529 53.536V37.192H501.841C501.361 37.192 500.953 37.024 500.617 36.688C500.281 36.352 500.113 35.944 500.113 35.464V31.288C500.113 30.808 500.281 30.4 500.617 30.064C500.953 29.728 501.361 29.56 501.841 29.56H507.529V17.608C507.529 17.128 507.673 16.72 507.961 16.384C508.297 16.048 508.729 15.88 509.257 15.88H515.089C515.569 15.88 515.977 16.048 516.313 16.384C516.649 16.72 516.817 17.128 516.817 17.608V29.56H525.817C526.297 29.56 526.705 29.728 527.041 30.064C527.377 30.4 527.545 30.808 527.545 31.288V35.464C527.545 35.944 527.377 36.352 527.041 36.688C526.705 37.024 526.297 37.192 525.817 37.192H516.817V52.816C516.817 54.784 517.153 56.32 517.825 57.424C518.545 58.528 519.769 59.08 521.497 59.08H526.465C526.945 59.08 527.353 59.248 527.689 59.584C528.025 59.92 528.193 60.328 528.193 60.808V65.272C528.193 65.752 528.025 66.16 527.689 66.496C527.353 66.832 526.945 67 526.465 67H520.633Z" fill="white"/>
<path fill-rule="evenodd" clip-rule="evenodd" d="M51.2 58.812C50.8086 58.5338 50.4269 58.2413 50.0557 57.9348L46.5 55L44.005 52.5051C43.3359 51.8359 42.715 51.12 42.1472 50.3629L41.5 49.5L40.1 47.5L38.75 45.25L37.4 43L35.8 40.5L34 38.25L31.9 36L29.75 34.25C29.1949 33.8182 28.6098 33.4291 28 33.0853L28 83H51.2V58.812ZM56.8 61.5857V83L61.4 83C71.6725 83 80 74.6725 80 64.4V49L77.5 52.5L75.5 55L74.5475 55.9939C73.6513 56.9291 72.6664 57.775 71.6066 58.5197L69.5 60L67.0961 61.0684C65.7076 61.6855 64.2295 62.077 62.7176 62.2282C60.9221 62.4078 59.1089 62.2454 57.3739 61.7497L56.8 61.5857ZM22.4 31.1924L22.4 83L4.00001 83C1.79087 83 1.18818e-05 81.2091 1.09513e-05 79L0 53L2.5 47.5L4.5 43.5L6.5 39.5L8.49999 36.5C9.81762 34.853 11.477 33.5115 13.3636 32.5682L13.5 32.5L14.2188 32.1919C16.0538 31.4055 18.0294 31 20.0258 31C20.822 31 21.6159 31.0645 22.4 31.1924Z" fill="white"/>
<path d="M0 7C0 4.79086 1.79086 3 4 3H40H60C71.0457 3 80 11.9543 80 23V43V39.2L77 44.5L73.6 49.5L72 51.5L70.5 53L69.4939 53.8384C68.1702 54.9415 66.7094 55.8689 65.148 56.5976L64.5 56.9V56.9C62.3429 57.4883 60.0644 57.4624 57.9213 56.8253L57.5 56.7L56.1928 56.0651C54.7363 55.3576 53.3711 54.4759 52.1272 53.4394L51 52.5L48.2 49.8L46.3 47.7L44.8 45.6L43 42.9L42 41L40.8 39L38 35.2L35.8398 32.8238C34.6189 31.4808 33.221 30.3103 31.6844 29.3445L30.5 28.6L28 27.4V27.4C26.0185 26.5414 23.8903 26.0723 21.7315 26.0183L21 26H17.5V26C14.8624 26.3297 12.3227 27.2064 10.0433 28.574L10 28.6L8.14269 29.993C6.72058 31.0596 5.43848 32.3219 4.34712 33.7251V33.7251C3.58795 34.7012 2.91503 35.7532 2.34875 36.8524L1.5 38.5L0 41.5V29.4V14.2V7Z" fill="#CFE7FF"/>
</svg>
